# xmcd CD database file
#
# Track frame offsets:
#	183
#	16080
#	49248
#	58060
#	93675
#	128840
#	182520
#	191845
#	230280
#	255868
#	260478
#	287895
#
# Disc length: 4211 seconds
#
# Revision: 0
# Processed by: cddbd v1.4PL0 Copyright (c) Steve Scherf et al.
# Submitted via: CDex 1.50
#
DISCID=a510710c
DTITLE=Jacques Pellen - Celtic Procession
DYEAR=1993
DGENRE=Jazz
TTITLE0=Gwerz Landunvez
TTITLE1=En attendant la prophétie
TTITLE2=Elmore
TTITLE3=I still can get no sleep
TTITLE4=Gwenc'hlan
TTITLE5=Farewell
TTITLE6=An horalaj
TTITLE7=Deit Hui Genein
TTITLE8=Frère Jacques
TTITLE9=Solex
TTITLE10=Guinnevere, the little cascade
TTITLE11=Chieftains ballad
EXTD=YEAR: 1993
EXTT0=
EXTT1=
EXTT2=
EXTT3=
EXTT4=
EXTT5=
EXTT6=
EXTT7=
EXTT8=
EXTT9=
EXTT10=
EXTT11=
PLAYORDER=
